<svg width="60" height="47" viewBox="0 0 60 47" xmlns="http://www.w3.org/2000/svg"><title>book_ride</title><g fill="none" fill-rule="evenodd"><path d="M57.673 16.412c.523 0 .994.51.994 1.196 0 1.1-.78 1.947-1.684 1.947h-1.656l.19 1.5 1.42 11.252c.115.906-.104 1.823-.6 2.545l-.237.34V42.562c0 1.74-1.257 3.107-2.75 3.107h-.614c-1.89 0-3.47-1.718-3.47-3.89v-1.433H10.734v1.433c0 2.172-1.58 3.89-3.47 3.89H6.65c-1.493 0-2.75-1.367-2.75-3.106v-7.367l-.236-.342c-.497-.72-.716-1.636-.6-2.543l1.42-11.25.19-1.502H3.016c-.904 0-1.684-.848-1.684-1.947 0-.685.47-1.196.994-1.196H7.48l.348-.804 4.03-9.3c1.32-3.05 4.11-4.975 7.152-4.975h22c3.03 0 5.808 1.917 7.125 4.955l4.037 9.32.348.804H57.673z" stroke="#9B9B9B" stroke-width="2.667"/><path d="M13.333 30.214c-1.84 0-3.333-1.503-3.333-3.357 0-1.854 1.492-3.357 3.333-3.357 1.842 0 3.334 1.503 3.334 3.357 0 1.854-1.492 3.357-3.334 3.357zM43.333 26.857c0 1.854 1.492 3.357 3.334 3.357 1.84 0 3.333-1.503 3.333-3.357 0-1.854-1.492-3.357-3.333-3.357-1.842 0-3.334 1.503-3.334 3.357" fill="#9B9B9B"/><path d="M15.032 18.56h30" stroke="#9B9B9B" stroke-width="2.667" stroke-linecap="square"/></g></svg>