<svg width="58" height="53" viewBox="0 0 58 53" xmlns="http://www.w3.org/2000/svg"><title>Group</title><g fill="none" fill-rule="evenodd"><path d="M29.276 50.872H4.03V3.78l25.246-2.558v49.65z" stroke="#9B9B9B" stroke-width="2.21"/><path d="M20.024 46.065v-4.102h1.38v4.102h-1.38zm0-10.965v-4.102h1.38V35.1h-1.38zm-8.286 0v-4.102h1.38V35.1h-1.38zm0 10.965v-4.102h1.38v4.102h-1.38zM20.024 24.134v-4.102h1.38v4.102h-1.38zm0-10.965V9.066h1.38v4.102h-1.38zm-8.286 0V9.066h1.38v4.102h-1.38zm0 10.964v-4.102h1.38v4.102h-1.38z" stroke="#9B9B9B" stroke-width="1.381"/><path d="M54.062 51h-24.76V25.776h24.76V51z" stroke="#9B9B9B" stroke-width="2.21"/><path d="M44.88 46.065v-4.102h1.382v4.102h-1.38zm0-10.965v-4.102h1.382V35.1h-1.38zm-8.285 0v-4.102h1.38V35.1h-1.38zm0 10.965v-4.102h1.38v4.102h-1.38z" stroke="#9B9B9B" stroke-width="1.381"/><path fill="#9B9B9B" d="M30.118 49.893H0v2.193h58v-2.193H45.476"/></g></svg>