<svg width="60" height="60" viewBox="0 0 60 60" xmlns="http://www.w3.org/2000/svg"><title>customer support</title><path d="M53.408 27.73c-.36-1.072-1.2-1.907-2.278-2.265V21.29C51.07 9.542 41.483 0 29.737 0 17.992 0 8.404 9.542 8.404 21.23v4.175c-1.08.358-1.918 1.193-2.277 2.266-3.296.48-5.813 3.28-5.813 6.68v3.34c0 3.4 2.517 6.203 5.813 6.68.54 1.49 1.918 2.504 3.536 2.504 2.097 0 3.775-1.67 3.775-3.757V28.805c0-.955-.36-1.85-1.02-2.505-.418-.477-.958-.835-1.557-1.014V21.11c0-10.316 8.45-18.784 18.877-18.784 10.367 0 18.877 8.41 18.877 18.785v4.176c-.6.24-1.14.537-1.558 1.014-.6.656-1.02 1.55-1.02 2.505v14.312c0 1.61 1.02 2.982 2.458 3.52-.54 4.77-4.555 8.467-9.528 8.467H36.03c-.48-1.073-1.56-1.848-2.817-1.848H26.98c-1.737 0-3.115 1.37-3.115 3.1s1.378 3.102 3.116 3.102h6.233c1.258 0 2.337-.775 2.816-1.85h2.936c6.292 0 11.505-4.83 11.985-10.972 1.08-.358 1.978-1.193 2.338-2.326 3.296-.477 5.812-3.28 5.812-6.68v-3.34c.12-3.22-2.456-6.082-5.692-6.56zm3.295 10.08c0 1.968-1.318 3.578-3.056 4.115v-11.63c1.798.537 3.056 2.207 3.056 4.115v3.4zm-5.573-8.827v14.313c0 .716-.6 1.253-1.258 1.253-.66 0-1.258-.598-1.258-1.254V28.983c0-.715.6-1.252 1.258-1.252.66 0 1.258.538 1.258 1.253zm-40.21 0v14.313c0 .716-.598 1.253-1.257 1.253-.66 0-1.26-.598-1.26-1.254V28.983c0-.715.6-1.252 1.26-1.252s1.258.538 1.258 1.253zM2.77 34.47c0-1.968 1.32-3.578 3.057-4.115v11.63c-1.797-.537-3.056-2.207-3.056-4.116v-3.4zm30.443 22.662H26.98c-.36 0-.598-.298-.598-.596 0-.358.3-.597.6-.597h6.23c.36 0 .6.297.6.596 0 .357-.24.596-.6.596z" fill-rule="nonzero" fill="#9B9B9B"/></svg>