<svg width="49" height="48" viewBox="0 0 49 48" xmlns="http://www.w3.org/2000/svg"><title>drive-ic</title><g fill-rule="nonzero" fill="#9B9B9B"><path d="M24.43.07C11.18.07.346 10.765.346 24c0 13.166 10.766 23.93 24.086 23.93 13.252 0 24.087-10.696 24.087-23.93C48.447 10.834 37.682.07 24.43.07zm0 46.49C11.94 46.56 1.726 36.48 1.726 24c0-12.41 10.145-22.56 22.706-22.56 12.493 0 22.707 10.08 22.707 22.56-.07 12.41-10.214 22.56-22.706 22.56z"/><path d="M43.824 25.646c-.07-.07-.207-.137-.345-.137-.553-.48-1.657-.756-3.107-.893-.69-.068-1.518-.137-2.484-.137-2.83 0-6.005.41-7.248.617-.276.07-.552.274-.552.55-.276 2.056-1.725 3.702-3.658 4.387-.07.07-.207.07-.276.137l-.207.207c-.07.07-.14.206-.14.274-.068.276-.344 1.03.07 10.22v.41c.07 1.646.897 2.194 1.243 2.33.07 0 .138.07.276.07h.137c8.833-1.37 15.735-8.503 16.632-17.486-.07-.205-.14-.41-.346-.548zM27.468 42.24c-.138-.137-.276-.41-.276-1.03v-.41c-.277-7.063-.207-9.05-.138-9.6 2.14-.823 3.726-2.674 4.278-4.937 1.45-.206 4.14-.55 6.557-.55.896 0 1.655.07 2.276.138 1.726.207 2.21.48 2.416.55 0 .07.07.07.07.137-1.106 8.023-7.248 14.4-15.184 15.703zM29.814 23.04c.07.274.345.48.69.48h.138c1.243-.206 7.66-1.37 11.32-3.017l1.24-.617c.277-.137.415-.48.346-.755C41.27 10.424 33.472 4.39 24.5 4.39c-8.903 0-16.7 6.033-19.048 14.673-.07.343.07.617.345.754.483.274.966.48 1.38.686 3.59 1.646 9.524 2.743 11.25 3.017.345.07.69-.137.76-.48.758-2.263 2.898-3.84 5.313-3.84 2.415 0 4.555 1.577 5.314 3.84zm-11.732-.96c-2.002-.343-7.247-1.44-10.352-2.81-.276-.14-.484-.207-.76-.344C9.317 11.176 16.425 5.76 24.5 5.76c8.144 0 15.252 5.417 17.53 13.234-.207.137-.484.206-.69.343-3.106 1.44-8.49 2.47-10.422 2.812-1.104-2.54-3.588-4.253-6.418-4.253-2.83-.068-5.314 1.646-6.418 4.183zM22.844 30.377l-.345-.343c-.07-.068-.14-.137-.208-.137-1.726-.754-2.968-2.4-3.313-4.25-.07-.276-.277-.55-.553-.55-.966-.137-4.486-.686-7.592-.686-.897 0-1.725.07-2.415.14-1.864.273-3.106.547-3.45 1.3-.07.14-.07.276-.07.344.897 8.915 7.73 16.046 16.494 17.417h.138c.07 0 .207 0 .276-.067.415-.206 1.105-.754 1.174-2.263v-.41c.345-9.26.138-10.013.07-10.287-.07-.07-.14-.137-.208-.206zM21.6 40.87v.41c0 .55-.137.89-.275.96C13.39 40.87 7.315 34.423 6.28 26.4c.276-.137.828-.343 2.278-.55.62-.067 1.38-.136 2.277-.136 2.623 0 5.52.412 6.902.55.483 2.056 1.932 3.84 3.864 4.73l.07.07c.138.616.207 2.536-.07 9.805z"/></g></svg>