<svg width="33" height="52" viewBox="0 0 33 52" xmlns="http://www.w3.org/2000/svg"><title>media-ic</title><g fill-rule="nonzero" fill="#9B9B9B"><path d="M16.5 36.02c5.965 0 10.662-4.693 10.662-10.654V10.844C27.162 4.884 22.465.19 16.5.19 10.535.19 5.838 4.883 5.838 10.844v14.522c0 5.96 4.697 10.654 10.662 10.654zM8.187 12.05h4.505c.635 0 1.206-.51 1.206-1.206 0-.634-.508-1.205-1.206-1.205h-4.38c.573-4.123 4-7.04 8.188-7.04 4.188 0 7.615 2.98 8.187 7.102h-4.38c-.634 0-1.205.508-1.205 1.205 0 .634.508 1.205 1.206 1.205h4.505v3.298H8.187v-3.36zm0 5.643H24.75v7.673c0 4.63-3.617 8.307-8.313 8.307-4.697 0-8.25-3.678-8.25-8.307v-7.673z"/><path d="M15.294 40.395V51.81h2.348V40.395c8.377-.634 14.977-7.61 14.977-16.107v-.254h-2.35v.254c.065 7.546-6.155 13.76-13.77 13.76-7.615 0-13.835-6.214-13.835-13.824v-.253H.317v.254c0 8.56 6.6 15.537 14.977 16.17z"/></g></svg>