<svg width="57" height="41" viewBox="0 0 57 41" xmlns="http://www.w3.org/2000/svg"><title>Group 2</title><g stroke="#9B9B9B" fill="none" fill-rule="evenodd"><path stroke-width="1.68" stroke-linecap="round" stroke-linejoin="round" d="M25.815 16.74l.538-3.335-2.392-2.34 3.28-.508 1.448-3.04 1.49 3.018 3.286.46-2.36 2.376.584 3.327-2.947-1.55z"/><path d="M6.06 31.68s22.503 17.02 45.074-.21c0 0-22.77-8.33-45.074.21z" stroke-width="2.24" stroke-linecap="round" stroke-linejoin="round"/><path d="M51.2 31.142l.66-3.722 3.425-7.19c.58-1.113.243-2.584-.734-3.156-2.935-1.715-5.806-3.468-8.54-5.643-2.793-2.22-5.5-4.614-8.455-6.52C34.82 3.146 31.755 2.12 28.69 2c-3.068.118-6.135 1.145-8.868 2.91-2.953 1.906-5.662 4.3-8.454 6.52-2.733 2.176-5.606 3.93-8.54 5.644-.978.572-1.316 2.043-.736 3.156l3.424 7.19.603 4.393" stroke-width="2.24" stroke-linecap="round" stroke-linejoin="round"/><path d="M5.516 28.127s21.562-12.536 46.346 0" stroke-width="2.24"/></g></svg>