<svg width="40" height="52" viewBox="0 0 40 52" xmlns="http://www.w3.org/2000/svg"><title>security-ic</title><path d="M38.61 7.11L19.96.06c-.22-.083-.462-.083-.68 0L.627 7.11C.25 7.25 0 7.614 0 8.02v22.94c0 3.87 2.023 7.497 6.365 11.413 3.073 2.773 7.036 5.4 10.87 7.94l1.85 1.23c.16.108.348.162.534.162.186 0 .372-.054.534-.163.612-.408 1.227-.815 1.84-1.223 3.838-2.54 7.805-5.17 10.88-7.945 4.343-3.916 6.365-7.543 6.365-11.413V8.022c0-.407-.252-.77-.63-.913zM37.304 30.96c0 3.275-1.817 6.44-5.72 9.96-2.97 2.678-6.875 5.267-10.652 7.77l-1.31.87c-.44-.293-.883-.584-1.323-.878-3.774-2.5-7.675-5.087-10.642-7.76-3.902-3.522-5.72-6.687-5.72-9.962V8.697l17.684-6.68 17.683 6.68v22.265zM18.78 11.852L8.267 30.2c-.172.3-.172.673 0 .975.173.3.493.487.84.487h21.04c.535 0 .968-.437.968-.975 0-.23-.08-.443-.212-.61L20.457 11.85c-.174-.3-.493-.487-.838-.487-.348 0-.667.186-.84.488zm9.677 17.86H10.78l8.84-15.424 8.837 15.424zm-8.838-3.456c-.536 0-.97.437-.97.975v.35c0 .538.434.975.97.975.534 0 .966-.437.966-.975v-.35c0-.537-.433-.974-.967-.974zm-.97-7.298v5.663c0 .54.434.976.97.976.534 0 .966-.436.966-.975V18.96c0-.54-.432-.975-.967-.975-.536 0-.97.436-.97.975z" fill-rule="nonzero" fill="#9B9B9B"/></svg>